# xmcd
#
# Track frame offsets: 
#        150
#        14157
#        28639
#        43431
#        57194
#        72877
#        87800
#        103143
#        119137
#        133853
#        146521
#        158215
#        174775
#        184839
#        196352
#        209546
#        224879
#        238574
#
# Disc length: 3385 seconds
#
# Revision: 4
# Processed by: cddbd v1.5.2PL0 Copyright (c) Steve Scherf et al.
# Submitted via: ExactAudioCopy v0.99pb3
#
DISCID=1c0d3712
DTITLE=Louis Armstrong - Louis Armstrong
DYEAR=1950
DGENRE=Blues
TTITLE0=Cornet Shop Suey, 1926
TTITLE1=Willie The Weeper, 1927
TTITLE2=Wild man blues,1927
TTITLE3=Hotter than that,1927
TTITLE4=Savoy blues, 1927
TTITLE5=Basin' street blues, 1928
TTITLE6=No one else but you, 1928
TTITLE7=I can't give you anything but love, 1929
TTITLE8=Dear old southland, 1930
TTITLE9=2:19 blues, 1940
TTITLE10=Blues for yesterday, 1946
TTITLE11=Saint-James infirmary, 1947
TTITLE12=When the saints go marchin' in, 1946
TTITLE13=I wonder, I wonder, i wonder, 1947
TTITLE14=Blueberry hill, 1949
TTITLE15=La vie en rose, 1950
TTITLE16=C'est si bon, 1950
TTITLE17=I get ideas, 1951
EXTD=
EXTT0=
EXTT1=
EXTT2=
EXTT3=
EXTT4=
EXTT5=
EXTT6=
EXTT7=
EXTT8=
EXTT9=
EXTT10=
EXTT11=
EXTT12=
EXTT13=
EXTT14=
EXTT15=
EXTT16=
EXTT17=
PLAYORDER=
